<svg version="1" xmlns="http://www.w3.org/2000/svg" width="400" height="400" viewBox="0 0 300.000000 300.000000"><path d="M0 75c0 86.1-1.1 78.5 10 66.3 12.3-13.7 20.5-26.9 31.6-50.8 3.1-6.7 13.9-25.4 18.5-32.1 1.7-2.5 2.5-4.5 1.9-4.9-.5-.3-1-1.2-1-1.8 0-1.2 5.8-8.4 11.5-14.3 3.4-3.6 3.4-3.5-1.7-14.4-1.5-3-2.9-7.5-3.2-10L67 8.5l1.9 3c1 1.6 5 8.5 9 15.2l7.2 12.2-4.3 3.8c-13.2 11.8-23.4 26.5-33.9 49-10.3 22.1-13.9 29-19 36.8-6.2 9.6-15.8 21.2-22.8 27.9-2.9 2.6-5 5-4.8 5.2 1.2 1.2 21.4-21.6 27.7-31.2 3.8-5.9 7-10.6 7-10.3 0 .3-.8 3-1.9 6-1 3-2.1 7.1-2.5 9.1-.7 3.7-2.3 5.7-18.4 22.2-5.3 5.5-5.8 6.2-2.4 3.7 2.3-1.8 4.2-3 4.2-2.6 0 .4-3.2 6-7 12.6-7.3 12.6-8.9 16.8-4.6 12.7 2.7-2.7 10.7-11.6 15.4-17.3 4.3-5.3 3.1-2-3.3 8.5-7.7 12.5-8.3 14.2-3 8.5 6-6.5 13.1-16.4 14.8-20.5l1.4-3.2 1.2 4.7c.7 2.6 2.5 7.3 4.1 10.6l3 5.8-2.4 8.3c-1.8 6.1-2.1 8.5-1.3 9 .7.4 1.8 0 2.5-.9 2-2.8 1.4-.6-1.7 5.5-1.6 3.1-4.5 7.4-6.4 9.5-1.9 2-3.1 3.7-2.7 3.7.4 0 1.3-.7 2-1.5s1.6-1.3 2-1c.5.3 2.3-2 4-5 3.5-6.1 4.4-7 2.8-2.7-1.5 3.9.6 8.6 4.9 10.6 2.6 1.2 3.3 2.2 3.3 4.4 0 1.6.9 6.4 2 10.7 1.1 4.3 2 8 2 8.1 0 .2-2.7-1.5-6-3.7-11-7.3-18.4-9.7-31.7-10.5l-9.3-.6v44l10.2 6.9c9.2 6.2 24.3 18.5 27.7 22.6 1.2 1.5 3.7 1.7 18.5 1.7 9.4 0 18.1-.3 19.3-.6 1.4-.4 2.6-1.9 3.3-4 1.3-3.7 5.1-6.9 7.3-6.1.9.3 1.2 1.6.9 3.6-.4 3-.3 3.1 3.2 3.1 4.9 0 10.7-4.9 8.7-7.4-.7-.9-1.9-1.6-2.5-1.6-.6 0-.3.5.7 1.1 1.4.8 1.5 1.4.6 3.1-1.1 2.1-1.2 2.1-2.2.2-.6-1-1.2-2.5-1.3-3.2-.2-1.2 5.5-6.2 7.1-6.2.4 0 1.3-.6 1.9-1.4 1.8-2.3 13.5-6.6 21.4-7.8 8.7-1.4 10.2-.5 10.5 6 0 2.3.6 4.3 1.3 4.6.7.3.9-.5.7-2.2l-.4-2.7 1.5 2.5c.8 1.4 1.2 2.8 1 3.2-.3.5-.1.8.5.8.5 0 1.4 1.5 1.9 3.2 3.5 12.1 3.4 11.8 6.4 11.8 1.5 0 2.8-.2 2.8-.5 0-1.1-6-12.2-8.9-16.5-1.7-2.5-3.1-5-3.1-5.6 0-1.8 4.8-5.7 6.4-5.1 2.6 1 11.5 13 15.2 20.4 1.9 4 3.7 7.3 4 7.3.7 0-2.4-7-5.2-11.7-1.3-2.3-2.4-4.4-2.4-4.7 0-.2 1.2-.7 2.8-.9 2.4-.4 2.3-.4-.8-.6-3.5-.2-7-3.3-8.6-7.6-.6-1.4-.3-1.6 1.7-1 5 1.6 22 10.6 22.6 12 .3.8 1.4 1.5 2.4 1.5 1.2 0 1.6-.5 1.3-1.4-.5-1.2 0-1.2 2.8-.2s9.6 4.3 10.6 5.1c.1.1-.2 1.4-.7 2.9-1.2 3-3.1 3.5-3.1.7 0-2-5.3-7.1-7.3-7.1-.7 0 .3.9 2.1 2 3.7 2.3 5.1 4.8 3.2 6-2.3 1.4-.1 2.9 3 2 4.5-1.3 4.5-1.3 4.5-4 .1-3.4.9-4.5 4.9-6.4 4.9-2.3 6.6-2.1 6.6.9 0 2.7 1.6 3.2 4.3 1.1 1.9-1.5 2.2-4.7.6-6.3-2.4-2.4 5.4-10.3 10.1-10.3 2.2 0 2.1-.2-1.3-2-2-1.1-4.4-2-5.2-2-.8 0-1.5-.4-1.5-.9s2.8-1.4 6.3-2c7.2-1.3 20.7-1.5 20.7-.4 0 .5 2.5.8 5.5.8 3.6 0 5.9.5 6.4 1.4.5.8 1.1.9 1.5.3.6-1-4.4-3.2-7.3-3.2-1.9 0-5.2-6.1-8.8-16.5-3-8.7-5.7-25.5-4.3-26.9.7-.7 1 .2 1 2.5 0 4.2 4.7 24 6 25.3.6.6.6-.3 0-2.3-1.1-3.9-3.6-17.6-4.5-24.8-.6-4.4-.1-6.6 2.9-15 1.9-5.4 4.4-12.7 5.5-16.3l1.9-6.5.3 8c.1 4.4.2 8.7.1 9.4-.1 3.3 2.9 20.6 5.3 30 2.6 10.4 9.1 29.8 10.6 31.7.5.7-.7 1.8-3.4 3.2-2.3 1.2-3.4 2.2-2.4 2.2 2.2 0 2.2 1.6-.1 2.9-1.5.9-1.4 1 .5.8 1.6-.1 2.3-.8 2.3-2.2 0-3.3 2-4.5 7.7-4.5 4.7 0 5.5.3 6.2 2.4 1 2.5 3.8 4.1 4.3 2.5.2-.5 1.6-1.1 3.2-1.2 2.4-.2 3.1.3 3.6 2.3.3 1.4 1.6 2.9 2.8 3.5 1.2.5 2.2 1.5 2.2 2.1 0 .7 1.2 1.9 2.6 2.9 2 1.3 2.4 2.2 1.9 3.8-.4 1.2-.7 3-.6 3.9 0 2.6-3.6 4.3-5.6 2.6-.9-.7 0 1.2 1.9 4.2 3.3 5.1 3.9 5.5 7.7 5.8l4.1.3v-4.6c0-4.2-.3-4.7-3.5-6.2-3.3-1.6-4.3-3.2-2.9-4.6.4-.4 2 .3 3.5 1.4 1.6 1.1 2.9 1.6 2.9 1.1s-1.1-1.7-2.3-2.5c-3.3-2.1-8.7-7.6-8.7-8.8 0-.5-1.2-1.4-2.6-1.9-1.9-.8-2.5-1.6-2.1-3 .8-3.1-1.8-4.5-5.8-3.2-2.9.8-3.7.7-4.8-.7-1.4-1.9-7.3-5.9-6.3-4.2.8 1.2-1.3 1.5-3 .3-3-1.9-8-16.9-8.7-25.5l-.4-5.8 11.6 11.4c12.4 12.2 24.3 21.2 23.4 17.7-.7-2.6.7-2.5 4.3.2 1.6 1.2.2-.8-3.2-4.3-9-9.5-22.4-26.2-19.7-24.6.7.4 6.5 5.5 13 11.3 14.3 12.7 15.3 13.4 15.3 10 0-1.6-2.2-5.4-5.6-9.8-7.3-9.5-9.6-14-8.6-16.9.8-2.1 1-2 3.1 1.5 2.7 4.2 3.8 4.5 4.7 1.1.8-3.1 1-3.1 3.9.2l2.4 2.8.1-6.2c0-3.4-.5-6.3-1-6.5-1.5-.5-8.9-22.5-9.5-28.3-.5-4.4-.2-3.8 2.9 5 3.3 9.7 8.1 21.1 7.2 17-.3-1.1-2.8-8.7-5.6-16.9s-4.9-15-4.7-15.3c.2-.2 1.2.8 2.1 2.1 2.2 3.4 4.6 2.4 4.6-2 0-3.6.8-4.2 2.8-2.2.9.9 1.2-2.7 1.2-16.5V145l-10.1-10.5c-5.6-5.8-10-10.7-9.7-11 .2-.2 4.8 3.6 10.1 8.6s9.7 8.6 9.7 8.1c0-.6-4.2-4.9-9.2-9.6l-9.3-8.7 2.5-1.9c1.4-1.1 2.9-2 3.4-2s3.5 2.8 6.7 6.2l5.8 6.3.1-65.3V0h-44c-50.1 0-44.9-1.2-42.9 9.6 1.5 8.5 3 10.4 7.4 9.7l3.6-.6-4.1 7.5c-2.8 5.2-4 8.5-3.8 10.8.2 2.2-.3 3.6-1.4 4.3-2.6 1.7-3.3.2-3.3-6.9 0-6.6-.3-7.1-3.6-5.4-1.7.9-1.9.7-1.9-1.8 0-1.6.9-4.1 2-5.5 2-2.5 2-3.1.9-11.4-1.1-8.2-2.8-13.2-3-8.8 0 2-.1 2-1 0-1.3-2.8-.3 2.2 1.8 9.5 1.7 5.7 1.8 7.9.3 9.4-.5.5-.6 0-.3-1.2s.2-3-.2-3.9c-.6-1.6-.8-1.6-2.5.4-2.3 2.9-2.5 2.9-2.7-.8-.3-4.3-2.6-7.5-5.7-8.1-2.3-.5-2.6-.2-2.6 2.6 0 2.3.8 3.6 3.2 5.3 2.8 2 3 2.3 1.2 2.8-1 .4-2.7 1.1-3.6 1.6-2.4 1.2-3.2-.5-3.5-7.6-.1-3.3-.3-7.4-.3-9l-.1-3-.9 2.8c-.5 1.7-.5 3.9.1 5.4 1.1 3.1 1.2 7.3 0 7.3-.5 0-1.4-.7-2.1-1.5-1.5-1.8-6.3-2-9.2-.4-1.4.8-2.3.8-3.1 0-1.3-1.3-1.5-6.5-.4-10.4.4-1.6.3-2.7-.2-2.7s-1.2 1-1.4 2.2l-.4 2.3-.2-2.3c0-1.2-.8-2.2-1.6-2.2-1.1 0-1.5 1.1-1.5 4.3 0 2.4-.6 5.1-1.3 6.1-1.3 1.7-1.5 1.7-4.5.2-3.1-1.6-3.2-1.6-3.2.3 0 1.4-.5 1.9-1.5 1.5-.9-.4-1.8.1-2.1 1-.4.9-1.9 2.3-3.5 3.1-3.3 1.7-14.1 2-17.1.4-2.4-1.3-4.8-6.7-4.8-10.9 0-2.5-.4-3-2.4-3-2.3 0-2.4.3-1.9 3.7.3 2.1 1.7 6 3.2 8.8 2.6 4.9 2.7 5 6.9 4.7 4-.4 4.2-.2 4.2 2.3 0 2.6-.2 2.7-4 2.1-3.8-.6-4-.5-4 2 0 1.4-.5 3.4-1 4.5-1.1 2-7 4.9-10.1 4.9-1.9 0-1.9-.1-.3-3.2 2.9-5.6.3-16.8-3.9-16.8-.6 0-.1.9 1.1 2 3.1 3 2.7 3.4-.8.9-1.6-1.2-2.7-2.6-2.4-3 .2-.4-.5-1-1.6-1.4-2.4-.8-3.6-2.9-5.6-9.7-.9-2.7-1.7-4.8-2-4.6-.2.3.1 1.9.7 3.7 1.6 4.6.5 4.8-1.5.3-1.5-3.2-2.3-3.9-4.7-4-3.2-.1-3.6.6-1.6 2.8.9 1.1.8 1.1-.8 0-1.1-.8-2.3-1.9-2.7-2.5-.4-.5-1-.7-1.3-.3-.8.7 15.3 17.2 20.5 21l3.4 2.5-7.1 2.1c-8.7 2.7-8.1 2.7-8.5 0-.3-2.3-9.6-8.6-24.3-16.5-6.1-3.3-6.7-3.8-4.3-4.1 1.4-.2 6 .8 10 2.2C88.3 8.8 92 10 92.4 10c1.1 0-.2-5-2-7.8L89 0H0v75zm77.9-64.9c2.9 1.5 9.5 5.4 14.6 8.6 8.7 5.5 9.3 6 9.8 9.7.4 2.5 1.5 4.8 3.3 6.4l2.7 2.6-5.3 1.8c-2.9 1-5.5 2-5.7 2.2-.9.8 2.7 6.4 5.2 8.3l2.6 1.8-2.8 2.1c-3.4 2.6-8 1.6-6.8-1.4 2.7-6.2-.4-12.4-6.7-13.6-3-.5-4-1.8-10-12.3-3.6-6.5-7.6-13.8-8.8-16.1l-2.1-4.4 2.3.7c1.3.4 4.7 2 7.7 3.6zm95.4 2.9c.3 1.1.1 1.8-.4 1.4-.5-.3-.9-1.2-.9-2 0-2 .7-1.7 1.3.6zM110 14c0 .5-.2 1-.4 1-.3 0-.8-.5-1.1-1-.3-.6-.1-1 .4-1 .6 0 1.1.4 1.1 1zm4.1 3.7c1.3 1.6 1.2 1.7-.3.4-1-.7-1.8-1.5-1.8-1.7 0-.8.8-.3 2.1 1.3zm44.4 2.2l4 .7-4 2.6c-2.2 1.4-5.4 2.8-7 3.2-2.8.6-3.1.4-4.1-2.8-.8-2.6-.8-3.7 0-4 1.7-.7 6.6-.6 11.1.3zm66 4.7c-1.7 3.2-2.2 5.1-1.5 5.8.5.5 1 1.9 1 3 0 3.3 1.9-.2 2.1-3.9.1-1.7.5 1.7 1 7.5.5 6.9.4 10.8-.2 11.5-.7.7-.8.1-.4-1.8 1-3.9-.3-3.3-2.2 1-.9 2.1-1.8 3.2-2 2.5-.3-.6-1.1-1.2-1.8-1.2-.8 0-1.7-.9-2-2-.3-1.1-1.5-2-2.6-2-2.4 0-2.4-.5.2-3.1 1.5-1.5 1.9-2.8 1.4-4.9-.7-3.1-.1-4.5 5.2-12.9 4.1-6.5 5.4-6.2 1.8.5zm9.4-4.7c.7.5 1 1.4.7 2-.4.6 0 1.1.8 1.1 1 0 1.6.9 1.7 2.2.1 1.3.3 4.9.5 8.1.2 4.7 0 6.1-1.6 7.4-1.7 1.5-1.8 1.9-.4 5.2.8 1.9 2 3.8 2.6 4.2 1.6 1-5.1 4.9-8.4 4.9-2.3 0-2.8-.5-2.8-2.3 0-1.3.6-3.2 1.4-4.2.8-1.1 1.2-2.4 1.1-3-.2-.5-.6-6.7-1-13.8l-.6-12.7h2.3c1.3 0 2.9.4 3.7.9zm-32.4 5.8c0 2.7.4 6.1.8 7.8.8 2.9.7 2.9-1-.5-1.3-2.4-1.8-4.9-1.5-7.8.6-5.7 1.7-5.3 1.7.5zm-21.4 3.2c2 2.5 2.6 6.1 1 6.1-.5 0-2.7-2.5-5-5.5S171.5 24 171 24c-.6 0-1-.5-1-1.1 0-1.5 7.9 3.1 10.1 6zm-40.2-2.3c.7.6-1.2 2.5-4.1 4-2.9 1.5-3 1.5-2.4-.1.3-.9.6-2.5.6-3.6 0-1.6.5-1.8 2.8-1.3 1.5.4 2.9.8 3.1 1zm54.5 1.6c-1 3.4-8.5 15.8-9.5 15.8-1.3 0-1.1-4.7.2-7.3 1.1-2.1 8.9-10.7 9.7-10.7.2 0 0 1-.4 2.2zm-17.3 13.7c2.2 2.4 4.4 6.1 5.1 8.2l1.1 3.9 1.8-3.9c1.2-2.8 3-4.6 5.8-6 7.1-3.7 7.8-2.5 3.1 5.1-3.5 5.7-3.9 10.3-.9 13.4 2.3 2.4 1.8 4.4-.9 4.4-2.9 0-6.3-3-8.2-7.4-1-2.2-1.9-3.3-1.9-2.4-.1.9-1.3 3-2.7 4.7-3.1 3.7-2.4 4.1.9.6l2.3-2.5 2.2 2.9c1.9 2.7 2.1 3.5 1.2 8.2-.6 2.9-.8 5.4-.6 5.6.2.3.7-1.1 1.1-2.9 1.3-6.3 1.3-6.3 5.4-6.3 3.9 0 3.9 0 3.4 3-.9 5.1-4.1 13.5-6.8 18.1-3.2 5.4-14.4 17.6-15.6 16.9-.4-.3-1.3.4-2 1.6-1.1 2.2-1.1 2.1 2.2-.2 14-10 23.3-27.2 24.6-45.6.4-6 1-8.4 2.1-8.8 5.3-2 7.5 4.5 7.5 21.8 0 12.6-1.7 22.4-5.4 32-1.1 2.6-1.9 4.9-1.9 5 0 .1 1.6.3 3.5.5 5.5.3 10 2.6 15 7.6 2.5 2.5 4.9 4.6 5.2 4.6.4 0 .2-.5-.5-1.2s-1.3-2.6-1.3-4.3c-.1-2.3-.3-2.5-.6-.7-.4 2.2-.6 2.1-5-1.8-2.6-2.2-6.8-4.8-9.5-5.8-3.6-1.2-4.7-2.1-4.2-3.2 2.1-4.8 5.3-17.7 5.9-23.4.4-3.7.9-6.5 1.2-6.3.2.3 2 4.7 3.9 9.8 1.9 5.2 3.2 8 2.9 6.4-.4-1.7-2.2-6.9-4.1-11.6-1.9-4.8-3.4-9.9-3.4-11.4 0-1.6-.5-5.7-1.1-9.2-.6-3.5-.9-6.7-.5-7 1-1 4.8 2.9 6.3 6.5 1.3 3 1.2 3.6-.8 6.8-2.7 4.4-2 6 2.9 7.5 3.3 1 4.5.9 7.2-.5 1.8-.9 3.5-1.6 3.7-1.6.9 0 7.2 14.8 7.1 16.6-.1 1 1 5.3 2.3 9.4 2.1 6.5 2.4 9.4 2.4 22.5 0 12.8-.3 16.2-2.3 23-2 6.6-3.2 8.8-7 12.7-2.5 2.7-4.2 4.8-3.6 4.8.5 0 1.6-.6 2.3-1.3 1-1 1.1-.9.6.5-.4 1-1.2 1.8-1.8 1.8-.6 0-.8.3-.4.6.3.4-1 3.8-2.9 7.6-1.9 3.9-3.3 7.2-3.1 7.5.3.2.8-.5 1.2-1.7.5-1.6 1-1.9 2-1 2.2 1.8 2.7 6.4 1.5 12.9-2.1 11.7-7.3 19.6-14.6 22.7-1.8.8-3.5 2.2-3.8 3.2-1.7 5.3-14.2 13.5-34.1 22.4-11.4 5.1-14 5.7-19 4.5-2.3-.6-2.6-.5-1.3.3 2.2 1.4 6.5 1.6 10.1.7 2.6-.7 2.7-.6 2.7 2.8 0 3.1-.4 3.8-3.4 5-2 .9-3.8 2.6-4.6 4.5-.7 1.6-1.5 3-1.9 3-.3 0-1.6-1.5-2.7-3.3-1.5-2.3-5.5-4.9-13.7-9.2-9.2-4.8-11.9-6.6-13.1-9.2-.8-1.8-3.2-5-5.2-7.2-4.4-5-4.1-7.1.6-3.6 7.1 5.4 20.9 12.7 19.5 10.5-.3-.6-1.1-1-1.7-1-1.4 0-12-6.4-17.8-10.7-2.8-2.1-5.2-5-6.3-7.6-1.7-4.1-1.7-4.1-1.1-.7.8 4.4 7 22.2 9.5 27.4 1 2.2 1.7 4.1 1.6 4.3-.4.3-6.5-7.7-9.8-12.9-2.2-3.5-3.9-4.8-3.9-3.1 0 .5 1.7 4.3 3.8 8.5 2.1 4.3 3.6 7.8 3.4 7.8-.2 0-3.3-2.8-6.9-6.3-7-6.6-11.6-13-17.8-24.2-2.2-3.9-4.2-7.1-4.6-7.3-.5-.2-.5-1-.2-1.9.4-1.1.2-1.4-.5-.9-1.3.8-2.9-2.5-7.2-14.9-1.6-4.4-2.9-7.4-2.9-6.7-.1.9-.6 1-2 .2-3.4-1.8-3.7-1.1-.5.9 2.2 1.3 3.7 3.4 4.8 6.7.9 2.6 1.5 4.9 1.3 5-.7.8-10.6-6.8-14.8-11.3-6-6.4-9.2-14.6-9.3-23.5-.1-6.3.1-7 3-9.9 2.8-2.8 3.6-3.1 6.8-2.5 2 .4 3.6 1.3 3.6 2 0 .8.3 2.8.6 4.5.5 2.6.3 3.1-1.2 3.2-1.7 0-1.7.1.2.9 2.3.9 3.8 5.9 2.3 7.4-.5.6-.8 2.1-.8 3.5.1 2.5.2 2.4.9-.4l.7-3 .7 3c.4 1.6 1.2 4.3 1.7 5.9.5 1.5.6 3.2.4 3.6-.3.5 0 1.2.6 1.6 1.3.8 1.5 1.8-2.8-17.6-2.5-11.5-2.8-14.2-2.8-34 0-22.1 1.8-39.1 4.7-44.2 1.2-2.1 1.3-1.9 1.8 3.2.5 5.4.5 5.4 1.3 1.9.6-2.7 1.2-3.5 2.8-3.5 1.6.1 3.2-1.6 6.1-6.4 6.2-10.2 7-10.2 3.4.1-3.5 9.6-6.1 21.2-7 30.9-.3 3.2.5.5 2-6.5 2.7-12.8 6.7-25.6 10.8-34.7 2.8-5.8 8.5-11.5 15.4-15 5-2.5 6.7-2.3 9.2 1.2l2.1 3-2.9 5.3c-5 8.6-14.3 38.1-14.1 44.2 0 1.1.6-.3 1.3-3 .7-2.8 3.6-10.9 6.5-18 6.4-15.6 7.1-18 3.1-10-1.7 3.3-2.8 4.9-2.4 3.5 1.3-5 4.4-12.6 6.8-16.4 2.3-3.9 2.5-4 7.7-3.9l5.4.1-4.9-.7c-3.3-.5-5.5-1.5-6.7-3-4.6-5.6-.7-11.5 8.9-13.6l3.3-.7-2.1 3.4c-2.7 4.4-2.5 8.1.5 11.4 2.1 2.2 2.7 2.5 4 1.4 1.4-1.2 1.3-1.5-.5-3.2-6.2-5.8 3.2-16.8 14.4-16.8 6 0 12.4 2.5 16 6.3 2.4 2.5 2.7 3.6 2.3 6.9-.3 2.2-1.3 4.5-2.3 5.2-1.2.9-1.4 1.5-.6 2 .7.4 1.2.2 1.2-.3 0-.6.6-1.1 1.3-1.1 1.8 0 3.7-4.3 3.7-8 0-4-2.7-10.7-6.2-15.1-1.5-2-2.8-4-2.8-4.4 0-1.5 8.6 4.4 12.1 8.4zm-60.6-4.2c4.9 1.4 12 1.3 31.9-.3 7.8-.7 13.8 1.1 17.6 5.1 2.9 3.1 2.2 3.1-3.3.3-5.2-2.7-12.9-2.8-24.6-.4-15.3 3.2-24.4 1.5-29-5.4-1.5-2.3-1.5-2.4.4-1.6 1.1.5 4.3 1.5 7 2.3zm-14.1 5c.9 2.3-1.6 3.7-3.1 1.6-.7-.9-1-2-.7-2.4.9-1.5 3.1-1 3.8.8zm5.7 4c4.9 2.3 4.9 3.3.1 3.3-4.7 0-8.5-2.4-6.2-4 1.9-1.3 1.7-1.3 6.1.7zm102.7 5.7c2 1.3 6.2 3.2 9.2 4.1 5.3 1.6 5.7 1.6 11.5-.3 3.3-1.1 6.1-1.9 6.3-1.7.7.7-2.9 6.5-4.7 7.5-2.5 1.3-7.2 1.3-10.8-.1l-2.8-1 2.2 2.3c1.1 1.3 2.4 3.7 2.8 5.5.5 2.5.2 3.4-1.7 4.7-2.6 1.9-3.7 2-7.3.6l-2.5-1 2-2c4.9-4.9.4-15-8.5-19.1-3.1-1.4-3.5-1.8-1.7-1.8 1.2-.1 3.9 1 6 2.3zm14.9.8c-.3.8-.6.5-.6-.6-.1-1.1.2-1.7.5-1.3.3.3.4 1.2.1 1.9zm19.4 9.3c1.6 6.8 2.4 8.2 9.8 16.1 3.5 3.8 10.2 12.1 14.9 18.4 4.7 6.3 10.3 13.1 12.5 15.1 4.7 4.1 4.3 5.9-1.3 5.9-3.2 0-4.3-.5-5.6-2.8-12.8-20.6-23.4-34-31.4-39.4-3-2-5.6-4.1-5.8-4.8-.2-.6 1.1-2.5 2.9-4.1l3.4-2.9-3.3-2.8c-3-2.7-3.2-3.1-2.2-5.8l1.1-2.9L242 55c1.1 1.4 2.4 4.7 3.1 7.5zm-134.6-4.8c-9 6-18.7 16.3-23.7 25-3 5.3-4.8 6.7-4.8 3.8 0-2.3 6.4-11.9 11.8-17.8 6-6.4 15.8-13.7 18.5-13.7 1.7 0 1.4.5-1.8 2.7zm85.9 1.7c-.4 1.8-1 2.4-1.7 1.7-.5-.5-.6-2.2-.3-3.7.5-1.8 1-2.4 1.7-1.7.6.6.7 2.2.3 3.7zm-107.7.3c5.9 1.8 6.6 2.8 2.8 3.7-1.6.4-2.5 1.3-2.5 2.6 0 1.1-2.3 6.1-5 11.2-4.2 7.8-5 8.7-4.6 5.8.4-4 3.2-11.1 4.6-12 .5-.3.4-3.1-.4-6.8-.7-3.4-1-6.2-.8-6.2.3 0 2.9.8 5.9 1.7zM64.4 65c-3.7 6.4-11.6 23-10.9 23 .3 0 1.4-1.9 2.6-4.3 1.2-2.3 5.2-7.2 8.8-10.8C75.3 62.6 86.4 58 80 66.8c-3.3 4.5-14.1 30.8-15.3 37.2l-.7 3.5 1.9-2.4 1.8-2.3.6 4.7c.4 2.6.7 10.1.7 16.7 0 14.3-2.1 24.5-5.4 25.8-7.4 2.8-9.7 12.7-5.6 24.5 2.8 7.9 2 15.5-1.4 15.5-3.2 0-5.1-2.6-6.7-9.5-.7-3.3-1.5-5.2-1.7-4.2-.2 1 .1 3.1.7 4.7 1.6 4.8.2 3.4-2.4-2.3-2.3-5-2.4-5.8-1.5-14.2 1.7-14.9 4.7-24.9 12.4-41.8 1.9-4.2 3.4-7.7 3.2-7.7-.6 0-7.4 11.6-9.6 16.5-2.1 4.7-2.3 4.9-3 2.5-.7-2.3-.8-2.2-1 1l-.2 3.5-1.3-4c-2-5.9-1.8-19 .5-29.9 1.1-5.3 1.7-10.2 1.5-10.9-.7-1.8 18.3-34.7 20-34.7.2 0-1.1 2.7-3.1 6zm176.3.7c-.9.9-1.9 1.4-2.3 1.1-1-1 .6-2.8 2.4-2.8 1.5 0 1.5.1-.1 1.7zm-3.7 1.4c0 .5-1.5.9-3.2.9-3.1-.1-3.2-.2-1.5-1.5 1.9-1.4 4.7-1 4.7.6zm0 12c1.2 4.4 1.9 8.3 1.7 8.6-.6.6-2.9-6.3-3.3-10-.2-1.5-.8-3.6-1.4-4.7-1.2-2.3-1.3-3.3-.1-2.6.5.3 1.9 4.2 3.1 8.7zm21.9 29.2c5.9 5.5 16 10.7 20.9 10.7 4.2 0 3.5 1.2-2.3 3.9-7.1 3.4-12.1 2.8-18.8-1.9-4.9-3.5-5.9-4.8-7.2-9.3-.8-2.9-2-5.9-2.6-6.7-.9-1.3-1-1.3-.6.1 6.3 19.9 7.7 27.4 7.7 42.1 0 12.5-1.5 28.5-3 32.2-.6 1.4-.9-1.2-.9-7.4-.1-5.2-.8-13.2-1.6-17.8-.8-4.6-1.8-11.8-2.2-16-.7-7-.9-6-1.4 10.8-.4 13.3-1.2 21.4-2.8 28.8-4.6 22-14.5 47-23.5 59.6-5.8 8.1-8.9 10.6-4.3 3.5 3.8-6 8.1-15.8 9.2-21.1.5-2.5-.6-1.2-5 5.7-5.5 8.8-11.4 15.9-12.3 15-.3-.3-2.4 1.3-4.8 3.5-2.3 2.1-6.5 5-9.2 6.4l-5 2.5 4.7-7.7c2.6-4.3 6-11.8 7.6-16.7 2.3-6.6 3.9-9.7 6.5-12.2 13.8-13 14.7-14.1 16.4-18.9 2.7-7.8 3.2-17.5 1.1-21.1-1.7-2.9-1.7-3 3-12.2 2.5-5.1 4.9-9.1 5.1-8.8 1 1-1.6 26.3-3.6 34.6-2.4 9.7-2.1 11.9.3 3.2 2.6-9.4 4.7-23.9 4.7-32.7 0-4.9.6-9.9 1.6-12.5 3.9-11.1 5.4-26.9 3.4-38.4-.4-2.8-.6-9.8-.2-15.7l.5-10.8 6.7 10.3c3.7 5.6 9.1 12.4 11.9 15zm-213.4-7.8c-3 11.3-7.4 33.5-7.8 40-.3 3.8-.2 5.9.2 4.5.6-2.3.9-2.1 3.8 3.2 2.7 5.1 2.9 6.1 2.2 10.8-1.8 11.5-1.5 15.4 2.1 21.6 1.8 3.3 3.9 6.7 4.8 7.6 1.9 2.3.9 2.3-3.1.1-6-3.3-9.9-7.8-13.9-15.8l-4-8 .6-12.5c.4-8.9 1.3-15.2 3.1-21.9 2.5-9.3 12.4-35.6 13.1-34.9.1.2-.3 2.6-1.1 5.3zm227.6 13.8c.9 1.6.8 1.7-.9.8-1.1-.6-2.2-2.3-2.5-3.8-.5-2.6-.4-2.7 1-.8.8 1.1 1.9 2.8 2.4 3.8zM6.7 116.1c1.5 1.5.5 3.9-1.7 3.9s-3.2-2.4-1.7-3.9c.6-.6 1.4-1.1 1.7-1.1.3 0 1.1.5 1.7 1.1zm276.6 19.6c5.3 5.4 10.4 10.8 11.3 12 3.1 4.7-.5 2-8.2-5.8-4.3-4.5-9.4-9.3-11.1-10.6-3-2.3-4.4-5.3-2.5-5.3.4 0 5.1 4.4 10.5 9.7zm-13.6 27c-.2 1.6-.4.5-.4-2.2 0-2.8.2-4 .4-2.8.2 1.3.2 3.5 0 5zm19.6 7.4c-.5.5-.6-1.1-.3-3.4.4-4.1.5-4.1.8-.8.2 1.8 0 3.7-.5 4.2zm5.2-5.1c1 1.1 1.6 2 1.3 2-.3 0-1.3-.9-2.3-2-1-1.1-1.6-2-1.3-2 .3 0 1.3.9 2.3 2zm-8.4 3.7c1.3 1.6 1.2 1.7-.3.4-1.7-1.3-2.2-2.1-1.4-2.1.2 0 1 .8 1.7 1.7zm-3.4 6c-.3 1-.5.4-.5-1.2 0-1.7.2-2.4.5-1.8.2.7.2 2.1 0 3zM57.6 196.4c1.5.4 4.7 2.1 7.1 3.7 5.8 4 16.9 15.4 17.6 18.1.5 1.6.3 1.8-.6.9-2.4-2.4-2.5-.9-.2 2.5 3.2 4.7 3.1 5-.6 5.8-8.3 1.6-17.7-1-24.6-6.9-6.5-5.5-15.3-24.5-13.9-30l.6-2.4 6 3.8c3.3 2.1 7.2 4.2 8.6 4.5zm21.6 2.5c3.7 2.2 5.8 6.2 5.8 10.9v2.5l-2.2-2c-1.3-1.1-4.1-3-6.3-4.1-6.8-3.6-9.5-6.3-8.8-9.4.5-2.6.6-2.6 4.2-1.3 2 .7 5.3 2.2 7.3 3.4zm-42.1 1.8c-1.2 2-1.4 1.4-.5-1.2.4-.9.9-1.4 1.1-1.1.3.2 0 1.3-.6 2.3zm239.6 7.5c-.3.8-.6.5-.6-.6-.1-1.1.2-1.7.5-1.3.3.3.4 1.2.1 1.9zm-10.1 8.5c-.9 3.5-3 2.8-5.6-1.9l-2.4-4.3 2.8 1.9c1.6 1 2.5 1.3 2.2.7-.4-.6 0-1.1.8-1.1 1 0 1.7-1 1.8-2.8.1-1.8.3-1.5.5 1.2.3 2.2.2 5-.1 6.3zm16.5-8c1.3 1.6 1.2 1.7-.3.4-1.7-1.3-2.2-2.1-1.4-2.1.2 0 1 .8 1.7 1.7zm-8.6 4.3c.8 0 1.6-.8 1.8-1.8.3-1.2.5-1.1.6.6.1 3.2-3.6 2.6-5.7-.8l-1.4-2.5 1.7 2.2c1 1.3 2.3 2.3 3 2.3zm-225 12c3.5 3.2 7.2 10.6 8.6 16.9.7 3.2 1.6 5.1 2.7 5.4.9.3.1.5-1.9.6-6.9.2-12-8.6-13.4-23.2-.3-4.1-.2-5.5.4-4.2.5 1.1 2.1 3.1 3.6 4.5zm48.9 3.9l3.8 5.4-4.6-3.8c-3.3-2.7-4.6-4.5-4.6-6.3 0-2.9.2-2.8 5.4 4.7zM236.6 253c1.9 4.7 3.7 8.9 4 9.5.8 1.7-16.7 0-21.1-2.1-2.2-1-4.2-1.9-4.4-2.1-.2-.1-.7-2.3-1.2-4.8-.8-4.5-.8-4.5 5.4-12.3 3.4-4.2 7.1-9.4 8.2-11.5l2-3.8 1.8 9.3c1 5.1 3.4 13.1 5.3 17.8zm-18.8-17.8c-3.1 6-4.3 7.7-4.6 6.2-.2-1.7 7.2-14.4 8.5-14.4.2 0-1.6 3.7-3.9 8.2zm-92.3 4.3c2.9 6.6 3 7.2.8 5.4-1.6-1.4-5.2-8.8-6.8-13.9l-.7-2.5 2.1 2.7c1.2 1.5 3.3 5.2 4.6 8.3zm-42.6-7.9c3.1.9 7.1 2.3 8.9 3.1 1.8.8 3.6 1.2 4 .9 1.5-.9 9.1 1.6 10.8 3.5 1.5 1.7.9 1.6-4-.6-8.8-3.9-7.7-2.4 1.5 2 8.2 4.1 12.1 6.9 7.8 5.8-1.5-.4-2-.3-1.5.5.4.7 1.7 1.2 2.9 1.2s3.5.7 5.1 1.5c1.5.8 3.6 1.5 4.6 1.5 2.1 0 8 5.2 8 7.2 0 .7-.8 2.5-1.8 3.9l-1.7 2.6-12-2.4c-7.3-1.4-14.4-3.5-18.2-5.3-10.6-5.2-18.9-14.8-20.6-23.8-.8-3.7-1-3.7 6.2-1.6zm-8.2 2.6c-.3.8-.6.5-.6-.6-.1-1.1.2-1.7.5-1.3.3.3.4 1.2.1 1.9zm-42 9.6c9.5 7.9 20.1 20.7 24.2 29.2 1.1 2.4 1.1 2.4-.3.5-6.5-8.3-12-14.3-21-22.5-5.7-5.2-10.7-10.1-11-10.8-1.2-2.6 2.6-1 8.1 3.6zm118 10.1c1.7 2.2 1.6 3.2-.2 2.5-.8-.4-1.2-1-.9-1.5 1-1.6-.7-.9-4.2 1.7-1.9 1.5-3.6 2.5-3.7 2.3-.2-.2-1.5-2.5-3-5.1-1.5-2.5-4.3-5.6-6.2-6.8-1.9-1.2-3.5-2.3-3.5-2.5 0-.2-.3-1.1-.7-2.1-.7-2 20.3 8.8 22.4 11.5zm35-.3c-.2 1.1.2 2.6 1 3.2 1.5 1.4 1.8 4.2.4 4.2-1.2 0-2.8-2.2-2.9-4 0-.8-.3-4.7-.6-8.5l-.6-7 1.5 5c.9 2.7 1.4 5.9 1.2 7.1zm-16.5-6.3c-2.4 1.1-3.8.5-2.8-1.1.3-.6 1.6-.8 2.8-.4l2.2.5-2.2 1zm-31.7 6.6c1.2 2.4 1.2 2.8-.1 2.8-.8 0-2.1-1.2-2.9-2.7-.8-1.5-2.1-3.2-2.9-3.9-.9-.8-1.6-1.8-1.6-2.3 0-1.6 6 3.2 7.5 6.1zm39.6 3.6c2 5.8 3.4 10.5 3.1 10.5-.3 0-3.9-2.6-8-5.8-11.3-8.7-11.3-8.7-11-7.3.4 1.5-2.8 3.8-3.8 2.8-1.5-1.5 2.7-5.3 8.7-7.8 3.5-1.5 6.6-2.8 6.9-2.8.3-.1 2.1 4.6 4.1 10.4zm-4.7 6.4c.3.5-.1 1.2-1 1.5-2.3.9-5.4.7-5.4-.3 0-1.8 5.4-2.8 6.4-1.2zm-33.9 1.1c-.3.5-1.1 1-1.6 1-.6 0-.7-.5-.4-1 .3-.6 1.1-1 1.6-1 .6 0 .7.4.4 1zm40 6.1c5.8 2.1 7.4 3 6.1 3.5-1 .4-3.3.2-5-.3-1.7-.6-4.8-1.4-6.8-1.7-2.2-.4-4.2-1.5-4.8-2.6-1.4-2.7-1.2-3.3.8-2.5.9.4 5.3 2 9.7 3.6zm-47.7-1.3c.2.8-.8 1.2-2.9 1.2-1.7 0-6.4 1-10.3 2.1-7.8 2.3-23.2 9.7-22.2 10.6.3.4-.2 1.5-1.1 2.5-1.6 1.8-1.6 2.1 0 4.8 1.8 2.9 1.8 2.9-1 3.6-1.8.5-2.8.3-3.1-.6-.4-1-.6-.9-1.4.1-.5.9-.6.4-.2-1.6.3-1.7 2-4.2 3.7-5.8 1.7-1.5 2.7-2.7 2.2-2.7s-2 1.1-3.5 2.5c-1.7 1.6-3 2.1-3.9 1.6-3.4-2.2 18.4-14 32.3-17.7 9.6-2.4 10.7-2.5 11.4-.6zm19.2-.3c.7.9.8 1.5.2 1.5-.5 0-1.2-.7-1.6-1.5-.3-.8-.4-1.5-.2-1.5s.9.7 1.6 1.5zm58.8 10.6c-1 1.7-1 2.3 0 2.6.6.3 1.2 1.3 1.2 2.3 0 2-2.7 4.6-3.7 3.6-.4-.4-.1-1.1.7-1.6 1.2-.7 1.2-1.2-.3-2.8-.9-1-1.7-2.6-1.7-3.4 0-.9-.6-1.9-1.2-2.1-.7-.3.4-.6 2.5-.6 3.5-.1 3.7 0 2.5 2z"/><path d="M75.5 15c4.6 7.8 5.6 9 8.1 9 1.4 0 2.3-.4 2-.9-1-1.6-11-9.6-10.1-8.1zM84.4 19.9c2.9 3.1 10.1 6.1 12.4 5.3 1.4-.4-3.2-3.1-10.8-6.4l-4.5-1.9 2.9 3zM97 29c0 1.8.2 1.9 2 .8 1.1-.7 2-1.6 2-2 0-.5-.9-.8-2-.8-1.3 0-2 .7-2 2zM89 35.1c-1.1 2-1.1 2 1.4.4 3-2 3.2-2.5 1.1-2.5-.8 0-1.9.9-2.5 2.1zM219.6 39.2c-.9 3.4-.8 3.5 1.5 4.1 1.7.5 2 .1 1.7-2.6-.4-3.7-2.3-4.7-3.2-1.5zM147.7 60.7c-.6 2.4-.2 9.1.6 10 .4.3.7-2.1.7-5.5 0-6.2-.5-7.7-1.3-4.5zM170.7 64.1c.7.7 1.5 1 1.8.7.3-.3-.2-.9-1.2-1.2-1.4-.6-1.5-.5-.6.5zM138.1 81c-8.5 12.9-16.6 28-19.6 36.5-3.5 9.7-6 10.3-5.2 1.2l.6-6.2-2.3 7.5c-1.3 4.1-2.9 9.1-3.5 11l-1.1 3.5.5-3.3c.3-1.9.1-3.1-.5-2.7-.5.3-1-1.2-1.2-3.2-.2-2.1-.9 2-1.5 9.2-1 9.6-1 16.2-.2 25.5 1 12.4 1.9 16.8 1.9 9.4 0-2.2.6-4.6 1.3-5.3 1-1.2.9-1.3-.7-.7-1.8.6-1.8.1-1.4-9.1.3-6.1.2-9-.4-7.8-.6 1.4-.7.8-.3-2 .2-2.2.5-5.8.5-8 0-3 .3-3.6 1-2.5.5.8.8 3.1.5 5-.3 2.3-.2 2.7.3 1.3 1.7-5.3 10.3-11.2 16.2-11.3 4.5 0 13.3 4.9 18.3 10.2 3.9 4.2 4.6 4.6 3.7 2.3-1.4-3.6-.6-4.3 2.2-1.9l2.2 1.9-2.2-3.8c-1.2-2-1.6-3.7-1-3.7 1.7 0-6.3-6.1-10.2-7.8-3.2-1.3-3.3-1.5-1.5-2.3 1.2-.5-1.6-.8-7.3-.6l-9.4.2.6-3c.4-1.7 2.9-7.6 5.6-13.3 5.7-11.6 4.5-11.1 18-8.3l8.5 1.7.5 8.9.5 9 .5-8.9c.3-4.8.3-9.2 0-9.6-.8-1.2-11.1-3.9-16.2-4.2-2.7-.2-4.8-.8-4.8-1.3 0-.6 3.6-6.4 8-12.9 4.4-6.6 7.8-12.1 7.5-12.4-.2-.2-4 5.1-8.4 11.8zm-26.4 44.2c-.3.8-.6.5-.6-.6-.1-1.1.2-1.7.5-1.3.3.3.4 1.2.1 1.9z"/><path d="M149.3 77c0 3 .3 8.6.7 12.5.7 6.8.7 6.9.7 1.5 0-3-.3-8.7-.7-12.5-.7-6.8-.7-6.9-.7-1.5zM182.6 83.5c-.9 3-3.4 8.8-5.4 12.9-2.1 4.1-3.4 7.2-3 7 2.1-1.4 11.7-23.8 10.6-24.9-.2-.3-1.2 2-2.2 5zM122.5 97c-1.3.6-1.5.9-.5.9.8 0 2.2-.4 3-.9 1.8-1.2.2-1.2-2.5 0zM217.1 98.6c0 1.1.3 1.4.6.6.3-.7.2-1.6-.1-1.9-.3-.4-.6.2-.5 1.3zM114.5 99.5c-2.5 1.2-2.6 1.4-.5.9 1.4-.4 2.9-1 3.5-1.5 1.2-1.2.5-1.1-3 .6zM218.1 102.6c0 1.1.3 1.4.6.6.3-.7.2-1.6-.1-1.9-.3-.4-.6.2-.5 1.3zM192.8 106.2c-1.1 2.6-1.4 4.6-.9 5.6.6 1.1 1.2.1 2-3.8.6-2.9 1-5.4.9-5.6-.2-.1-1.1 1.6-2 3.8zM219.2 106.5c0 1.1.4 3.3.8 5 .7 2.7.8 2.7.8.5 0-1.4-.4-3.6-.8-5-.6-2-.8-2.1-.8-.5zM196 110c-1.3.8-1.3 1 .2 1 .9 0 2-.5 2.3-1 .8-1.3-.5-1.3-2.5 0zM106.3 117.5c0 2.2.2 3 .4 1.7.2-1.2.2-3 0-4-.3-.9-.5.1-.4 2.3zM158.8 120.2c-.9 3.5-1.3 7.1-.8 8.2.6 1.7.8 1.5 1.3-1.4 1.2-7 1.9-13 1.5-13-.2 0-1.1 2.8-2 6.2zM187.5 117c-.9 1.6-1.3 3-1.1 3 .3 0 1.2-1.4 2.1-3 .9-1.7 1.3-3 1.1-3-.3 0-1.2 1.3-2.1 3zM138.8 118.5c2.3.7 4.9 1.9 5.8 2.6 1 .8 1.8.9 2.5.2 1.2-1.2-6.8-4.4-10.5-4.2-1.2 0-.2.6 2.2 1.4zM188.6 121.5c-.9 2.6-.7 3.2.5 1.2.6-1 .9-2.1.6-2.3-.2-.3-.7.2-1.1 1.1zM174.2 127.5c-2.3 4.8-4.1 7-6.9 8.5-3.5 1.9-2.9 2.1 1.4.3 1.1-.4 1.4-.3.9.5-.4.7-.5 1.2-.2 1.2.7 0 8.8-16.1 8.4-16.6-.2-.2-1.8 2.6-3.6 6.1zM182.9 124.7c-1.3 2.1-4.6 6.3-7.4 9.4-4.6 5.2-4.6 5.1 1-.6 3.3-3.4 6.8-7.6 7.8-9.3 2.5-4.5 1.4-4-1.4.5zM185.7 128.5c-.9 1.9-1.5 3.5-1.2 3.5.7 0 3.7-6.1 3.3-6.6-.3-.2-1.2 1.2-2.1 3.1zM188.5 129.7c-2.1 2.7-2.8 3.9-1.6 2.8 2.3-1.9 6.6-7.5 5.9-7.5-.2 0-2.1 2.1-4.3 4.7zM95.9 133.3c3.1 3.3 3.3 3.9 2.3 6.1-1.2 2.7-4.9 4.2-8.3 3.3-1.7-.5-1.8-.3-.7 1 .7.9 2.8 2.2 4.5 3 2.1.8 4 2.8 5.3 5.3 1.1 2.2 2.2 4 2.3 4 .2 0 .4-5 .6-11.1.1-6.2.4-11.5.6-11.9.2-.4-.9-.7-2.5-.8-1.6 0-3.9-.6-5.2-1.3-1.8-.9-1.5-.4 1.1 2.4zM151 135c0 2.9.3 5 .7 4.6.7-.7.5-8.7-.3-9.5-.2-.2-.4 2-.4 4.9zM114.5 134.3c-5.8 5.8-6.5 12.5-2.7 24.4 1.4 4.3 2.1 5.3 4 5.3h2.3l-2.3-3c-1.2-1.7-2.4-3-2.7-3-.3 0-.4-2.3-.3-5 .3-3.7.9-5.4 2.5-6.5 3.1-2.2 3.6-1.9 3 2-.6 3.8 1.7 8.5 4.2 8.5 2.2 0 4.5-4.1 4.5-8.2 0-4.2.5-4.5 3.9-2.2 2 1.4 2.2 2.2 1.7 5.8-.4 2.2-1.6 5.6-2.6 7.3-1.1 1.8-1.5 3.3-1 3.3.4 0 1.6.3 2.6.7 1.3.5 1.6.3 1.1-1-.3-.9.3-4.2 1.4-7.3 2.4-6.8 2-12.7-1.3-18.6-2.3-4-5.8-5.8-11.5-5.8-2.6 0-4.3.8-6.8 3.3zm17.5 4.3c1.1 2.8.1 4-3.8 4.9-2.9.6-3.4.4-3.9-1.5-.5-1.7-1.2-2.1-3.4-1.8-1.9.3-2.9 0-2.9-.8 0-2.1 3.2-3.3 8.4-3.1 3.9.2 5 .6 5.6 2.3zm-7.2 11.6c-.4 4.2-3.4 5.1-4.4 1.4-.7-3.1.1-4.6 2.7-4.6 1.7 0 2 .6 1.7 3.2zM157.1 132.6c0 1.1.3 1.4.6.6.3-.7.2-1.6-.1-1.9-.3-.4-.6.2-.5 1.3zM221.3 134.5c0 2.2.2 3 .4 1.7.2-1.2.2-3 0-4-.3-.9-.5.1-.4 2.3zM182.6 134.7c-.6 1.4-.5 1.5.5.6.7-.7 1-1.5.7-1.8-.3-.3-.9.2-1.2 1.2zM156 137.6c0 .7-.3 2-.6 2.8-.5 1.2-.2 1.5 1 1 .9-.3 1.3-1 1-1.5-.3-.6-.1-1.6.5-2.3.8-.9.7-1.3-.4-1.3-.8 0-1.5.6-1.5 1.3zM167.1 141.3c-1.3 2.1-1.2 2.1.5.5 1-1 1.6-2 1.3-2.2-.3-.3-1.1.5-1.8 1.7zM220.1 141.6c0 1.1.3 1.4.6.6.3-.7.2-1.6-.1-1.9-.3-.4-.6.2-.5 1.3zM229 141.1c0 .8-1.6 4.7-3.5 8.8-3.5 7.2-3.5 7.3-7.2 7-2.1-.2-5.8-1.2-8.2-2.2-3.4-1.5-5.9-1.8-11-1.5-6.5.5-14.5 3.4-13.5 4.9.2.4 0 1-.6 1.4-2.6 1.6-.5 2.1 4.2.9 2.9-.8 7.1-1.4 9.3-1.4 5.4 0 13.7 4.2 17.5 8.8 1.7 2 3 3.1 3 2.4 0-.8.5-1 1.2-.6.7.5.9.1.6-1.3-.5-1.7 0-2.2 2.4-2.7s2.7-.9 2-2.3c-.7-1.2-.5-3.1.8-6.3 2.1-5.5 4.4-15.9 3.6-16.7-.3-.4-.6 0-.6.8zm-4.4 16.3c-1.5 3.5-3 5.5-3.6 5.1-.8-.5-.6-1.4.4-2.8.9-1.2 2.4-4 3.3-6.1.9-2.2 1.8-3.5 2-2.9.2.6-.7 3.6-2.1 6.7zM190.5 145.6c-1.6.8-2.1 1.2-1 .8 1.1-.3 4.3-1 7-1.4 4.9-.7 4.9-.8 1-.8-2.2-.1-5.3.6-7 1.4z"/><path d="M219.1 145.6c0 1.1.3 1.4.6.6.3-.7.2-1.6-.1-1.9-.3-.4-.6.2-.5 1.3zM77.2 170c0 1.4.2 1.9.5 1.2.2-.6.2-1.8 0-2.5-.3-.6-.5-.1-.5 1.3zM62.5 174.5c.9 3 4.8 8.4 6.5 9 .8.4.3-.6-1.1-2.2-1.5-1.5-3.4-4.2-4.3-5.8-1-1.7-1.4-2.1-1.1-1zM78.1 175.6c0 1.1.3 1.4.6.6.3-.7.2-1.6-.1-1.9-.3-.4-.6.2-.5 1.3zM106.2 176c0 1.4.5 5.9 1.2 10 .8 4.1 1.4 6.4 1.4 5 0-1.4-.5-5.9-1.2-10-.8-4.1-1.4-6.4-1.4-5zM73 178.5c0 .5.5 1.7 1 2.5s1 1 1 .5c0-.6-.5-1.7-1-2.5s-1-1.1-1-.5zM79.1 179.6c0 1.1.3 1.4.6.6.3-.7.2-1.6-.1-1.9-.3-.4-.6.2-.5 1.3zM217.6 184.7c-.9 2.5-1.4 4.9-1.1 5.1.2.3.7-.4 1-1.4.3-1 1.2-3.1 2-4.6.8-1.5 1-3 .5-3.3-.4-.3-1.5 1.6-2.4 4.2zM146.8 189.7c.6.2 1.8.2 2.5 0 .6-.3.1-.5-1.3-.5-1.4 0-1.9.2-1.2.5zM156.8 189.7c.6.2 1.8.2 2.5 0 .6-.3.1-.5-1.3-.5-1.4 0-1.9.2-1.2.5zM137.5 191.5c-5 1.8-6.6 3.9-5.8 7.9 1.1 5.8 4.5 13.7 7 16.4l2.5 2.7-2-3c-7.4-11.2-6.6-20.1 2.2-24 4.1-1.8 1.2-1.8-3.9 0zM164.3 191.5c6 2.3 9.5 5.2 10.7 9.1 1.5 4.5.6 10.9-2.1 15.4-1.5 2.4-1.6 3-.5 2.1 2.5-2.1 7.6-13.1 7.6-16.6 0-1.8-.8-3.9-1.7-4.7-3-2.7-9.6-5.6-13.8-6.2l-4-.6 3.8 1.5zM215.1 192.6c0 1.1.3 1.4.6.6.3-.7.2-1.6-.1-1.9-.3-.4-.6.2-.5 1.3zM109.2 196c0 1.4.2 1.9.5 1.2.2-.6.2-1.8 0-2.5-.3-.6-.5-.1-.5 1.3zM211.9 203.3c-1.5 4.3-2.5 7.7-2.3 7.5 1.7-1.8 5.8-11.9 5.4-13.5-.3-1.3-1.4.6-3.1 6zM110.2 201c0 1.4.2 1.9.5 1.2.2-.6.2-1.8 0-2.5-.3-.6-.5-.1-.5 1.3zM111.2 205.5c0 1.1.4 3.1.8 4.5.6 2 .8 2.1.8.5 0-1.1-.4-3.1-.8-4.5-.6-2-.8-2.1-.8-.5zM146 239.5c1.4.8 3 1.4 3.5 1.4.6 0-.1-.6-1.5-1.4-1.4-.8-2.9-1.4-3.5-1.4-.5 0 .1.6 1.5 1.4zM58.1 89.2c-2.3 5.7-4.1 11-4.1 11.8.1.8 2.1-3.6 4.6-9.9 2.4-6.3 4.3-11.6 4-11.8-.2-.2-2.2 4.2-4.5 9.9zM217.4 224.2c-1 2.3-3.6 7-5.7 10.3-3.3 5.2-3.4 5.6-.8 2.6 3-3.4 9.6-15.9 8.9-16.7-.3-.2-1.3 1.5-2.4 3.8zM71 215.4c0 .7 7.1 5.8 7.6 5.3.2-.2-1.4-1.6-3.6-3.1-2.2-1.4-4-2.5-4-2.2zM263.5 215.9c-.3.5-.1 1.2.5 1.6.5.3 1-.1 1-.9 0-1.8-.6-2.1-1.5-.7zM116.5 255c1.7.4 3.9.8 5 .8l2 .1-2-.9c-1.1-.5-3.3-.8-5-.8h-3l3 .8zM125.8.7c.6.2 1.8.2 2.5 0 .6-.3.1-.5-1.3-.5-1.4 0-1.9.2-1.2.5zM132 .7c.5.2 1 2.3 1 4.6 0 8.2 5.4 12.9 12.9 11.2 2.9-.6 7.9-5 6.9-6-.3-.3-1.3.6-2.2 1.9-1.7 2.7-7 4.2-10.5 3.1-3-.9-5.5-5.1-6.1-10.3-.3-2.5-1.1-4.7-1.8-4.8-.7-.1-.8 0-.2.3z"/><path d="M138.2 3.2c3.1 4 6.2 4.7 7.8 1.8 2-3.7.6-5-5.1-5h-5.2l2.5 3.2zM153 4.8l.5 4.7.3-3.9c.2-2.1 0-4.2-.5-4.7-.4-.4-.6 1.3-.3 3.9zM160.3.7c.9.2 2.3.2 3 0 .6-.3-.1-.5-1.8-.5-1.6 0-2.2.2-1.2.5zM179.5 1c.3.5 1.5 1 2.5 1s2.2-.5 2.5-1c.4-.6-.7-1-2.5-1s-2.9.4-2.5 1zM200.5 1c.3.5.8 1 1.1 1 .2 0 .4-.5.4-1 0-.6-.5-1-1.1-1-.5 0-.7.4-.4 1zM116 10c-.8 1.5-.6 2.1.9 3 2.4 1.2 6.1 1.3 6.1.1 0-.5.8-1.1 1.8-1.3 1.3-.3 1-.8-1.5-2.1-4.2-2.2-6-2.1-7.3.3zM24.4 198.2c-1 2.3-3.4 6.7-5.1 9.8-2.5 4.2-2.7 4.8-.8 2.5 2.9-3.5 9-15.3 8.3-16-.3-.3-1.3 1.4-2.4 3.7zM12.9 216.7l-2.4 2.8 2.8-2.4c2.5-2.3 3.2-3.1 2.4-3.1-.2 0-1.4 1.2-2.8 2.7zM25 218.2c-1.5 2.1-1.7 2.8-.6 1.9 1.6-1.3 4.1-5.1 3.3-5.1-.2 0-1.4 1.5-2.7 3.2zM19.9 218.7c-1.3 1.6-1.2 1.7.4.4 1.6-1.3 2.1-2.1 1.3-2.1-.2 0-1 .8-1.7 1.7zM19.9 223.7c-1.3 1.6-1.2 1.7.4.4 1.6-1.3 2.1-2.1 1.3-2.1-.2 0-1 .8-1.7 1.7zM288.7 231.5c1.7 2.2 5.1 5.8 7.4 8 3.1 2.9 2.6 2-2-3.3-6.9-7.9-10.5-11-5.4-4.7zM236 268.1c-.7 1.1-1 2.3-.7 2.5.2.2.9-.7 1.5-2.1 1.4-3 .7-3.3-.8-.4zM250 270.5c0 .8.4 1.5 1 1.5.5 0 .7-.7.4-1.5-.4-.8-.8-1.5-1-1.5-.2 0-.4.7-.4 1.5zM224.6 271.8c.6.4 1.3 1.5 1.7 2.4.3 1 1.2 1.8 1.9 1.8.9 0 .9-.3.2-.8-.6-.4-1.3-1.5-1.7-2.5-.3-.9-1.2-1.7-1.9-1.7-.9 0-.9.3-.2.8zM233.6 274.6c-.4.9-.4 1.9-.1 2.2.2.3.7-.3 1.1-1.2.4-.9.4-1.9.1-2.2-.2-.3-.7.3-1.1 1.2zM131.7 277.1c.7.7 1.5 1 1.8.7.3-.3-.2-.9-1.2-1.2-1.4-.6-1.5-.5-.6.5zM0 289.4V300h14c7.7 0 14-.2 14-.5 0-.5-20.3-15.8-25.2-19L0 278.8v10.6zM117.5 281c-1.2 1.4-1.6 2.8-1.2 5 .5 2.2.3 3-.8 3-.7 0-1.6-1-1.8-2.3l-.4-2.2-.2 2.3c-.1 3 2.5 3.9 4.9 1.7 1.9-1.7 1.9-1.9.4-3.7-1.6-1.7-1.6-1.9.1-3.8 1-1.1 1.6-2 1.3-2-.3 0-1.3.9-2.3 2zM111 281.4c0 .2.7.7 1.6 1 .8.3 1.2.2.9-.4-.6-1-2.5-1.4-2.5-.6zM164.9 284.6c1.6 1.2 2.2 2.3 1.8 4-.5 2.9 1.4 4.7 4.5 4.2 1.7-.2 2.3-1 2.4-3.1.1-1.5-.2-2.7-.6-2.7-1.2 0-3.3 3-2.6 3.7.3.3.6.1.6-.5 0-.7.5-1.2 1-1.2.6 0 1 .7 1 1.6 0 1.1-.8 1.4-2.7 1.2-2.3-.2-2.7-.7-2.5-2.6.4-2.4-2.2-6.2-4.2-6.2-.6 0 0 .7 1.3 1.6z"/></svg>